<svg xmlns="http://www.w3.org/2000/svg" width="209" height="42" fill="none"><path fill="#004643" d="M58.272 32V9.6h3.392l11.232 16.864V9.6h3.392V32h-3.392L61.664 15.136V32h-3.392zm28.578.384c-1.557 0-2.944-.341-4.16-1.024a7.542 7.542 0 0 1-2.816-2.912c-.682-1.237-1.023-2.677-1.023-4.32 0-1.664.33-3.125.992-4.384.682-1.259 1.62-2.24 2.816-2.944 1.215-.704 2.623-1.056 4.223-1.056 1.558 0 2.912.352 4.064 1.056a7.236 7.236 0 0 1 2.689 2.752c.64 1.152.96 2.421.96 3.808 0 .213-.011.448-.032.704 0 .235-.011.501-.032.8H82.178c.107 1.536.609 2.71 1.505 3.52.917.79 1.973 1.184 3.167 1.184.96 0 1.76-.213 2.4-.64a4.04 4.04 0 0 0 1.472-1.792h3.393c-.427 1.493-1.28 2.741-2.56 3.744-1.26 1.003-2.827 1.504-4.705 1.504zm0-13.856c-1.13 0-2.133.341-3.007 1.024-.875.661-1.409 1.664-1.6 3.008h8.96c-.065-1.237-.502-2.219-1.313-2.944-.81-.725-1.823-1.088-3.04-1.088zM94.36 32l5.633-7.936-5.632-7.936h3.615l4.256 6.08 4.224-6.08h3.648l-5.632 7.936L110.104 32h-3.648l-4.224-6.08L97.977 32H94.36zm23.881 0c-1.557 0-2.794-.373-3.712-1.12-.917-.768-1.376-2.123-1.376-4.064v-7.84h-2.72v-2.848h2.72l.416-4.032h2.976v4.032h4.48v2.848h-4.48v7.84c0 .875.182 1.483.544 1.824.384.32 1.035.48 1.952.48h1.824V32h-2.624zm11.338.384c-2.006 0-3.659-.49-4.96-1.472-1.302-.981-2.048-2.283-2.24-3.904h3.424c.17.725.576 1.355 1.216 1.888.64.512 1.482.768 2.528.768 1.024 0 1.77-.213 2.24-.64.469-.427.704-.917.704-1.472 0-.81-.331-1.355-.992-1.632-.64-.299-1.536-.565-2.688-.8a21.188 21.188 0 0 1-2.688-.768c-.875-.32-1.611-.768-2.208-1.344-.576-.597-.864-1.397-.864-2.4 0-1.387.533-2.539 1.6-3.456 1.066-.939 2.56-1.408 4.48-1.408 1.77 0 3.2.427 4.288 1.28 1.109.853 1.76 2.059 1.952 3.616h-3.264c-.107-.683-.427-1.216-.96-1.6-.512-.384-1.206-.576-2.08-.576-.854 0-1.515.181-1.984.544-.47.341-.704.79-.704 1.344 0 .555.32.992.96 1.312.661.32 1.525.608 2.592.864 1.066.235 2.048.512 2.944.832.917.299 1.653.747 2.208 1.344.554.597.832 1.472.832 2.624.021 1.45-.544 2.656-1.696 3.616-1.131.96-2.678 1.44-4.64 1.44zm8.759 6.656V16.128h3.04l.352 2.464c.512-.747 1.216-1.408 2.112-1.984.896-.576 2.048-.864 3.456-.864 1.536 0 2.89.363 4.064 1.088 1.173.725 2.09 1.717 2.752 2.976.682 1.259 1.024 2.688 1.024 4.288s-.342 3.03-1.024 4.288a7.624 7.624 0 0 1-2.752 2.944c-1.174.704-2.539 1.056-4.096 1.056-1.238 0-2.336-.245-3.296-.736a5.677 5.677 0 0 1-2.24-2.08v9.472h-3.392zm8.352-9.6c1.45 0 2.645-.49 3.584-1.472.938-1.003 1.408-2.304 1.408-3.904 0-1.045-.214-1.973-.64-2.784a4.71 4.71 0 0 0-1.76-1.888c-.747-.47-1.611-.704-2.592-.704-1.451 0-2.646.501-3.584 1.504-.918 1.003-1.376 2.293-1.376 3.872 0 1.6.458 2.901 1.376 3.904.938.981 2.133 1.472 3.584 1.472zm16.213 2.944c-1.345 0-2.454-.224-3.328-.672-.875-.448-1.526-1.035-1.953-1.76a4.825 4.825 0 0 1-.64-2.432c0-1.536.598-2.752 1.792-3.648 1.195-.896 2.902-1.344 5.12-1.344h4.161v-.288c0-1.237-.342-2.165-1.024-2.784-.662-.619-1.526-.928-2.592-.928-.939 0-1.76.235-2.464.704-.683.448-1.099 1.12-1.248 2.016h-3.393c.107-1.152.491-2.133 1.152-2.944a6.48 6.48 0 0 1 2.56-1.888c1.046-.448 2.187-.672 3.424-.672 2.219 0 3.937.587 5.153 1.76 1.216 1.152 1.824 2.73 1.824 4.736V32h-2.944l-.288-2.72c-.448.875-1.099 1.61-1.953 2.208-.853.597-1.973.896-3.359.896zm.672-2.752c.917 0 1.685-.213 2.303-.64a4.387 4.387 0 0 0 1.473-1.76 6.82 6.82 0 0 0 .672-2.4h-3.776c-1.344 0-2.304.235-2.881.704-.554.47-.831 1.056-.831 1.76 0 .725.266 1.301.799 1.728.555.405 1.302.608 2.241.608zm18.067 2.752c-1.558 0-2.955-.352-4.192-1.056a7.704 7.704 0 0 1-2.88-2.912c-.683-1.259-1.024-2.71-1.024-4.352 0-1.643.341-3.083 1.024-4.32a7.64 7.64 0 0 1 2.88-2.944c1.237-.704 2.634-1.056 4.192-1.056 1.962 0 3.605.512 4.928 1.536 1.344 1.024 2.208 2.41 2.592 4.16h-3.552c-.214-.875-.683-1.557-1.408-2.048-.726-.49-1.579-.736-2.56-.736-.832 0-1.6.213-2.304.64-.704.405-1.27 1.013-1.696 1.824-.427.79-.64 1.77-.64 2.944 0 1.173.213 2.165.64 2.976.426.79.992 1.397 1.696 1.824a4.36 4.36 0 0 0 2.304.64c.981 0 1.834-.245 2.56-.736.725-.49 1.194-1.184 1.408-2.08h3.552c-.363 1.707-1.216 3.083-2.56 4.128s-2.998 1.568-4.96 1.568zm17.342 0c-1.557 0-2.944-.341-4.16-1.024a7.55 7.55 0 0 1-2.816-2.912c-.682-1.237-1.024-2.677-1.024-4.32 0-1.664.331-3.125.992-4.384.683-1.259 1.622-2.24 2.816-2.944 1.216-.704 2.624-1.056 4.224-1.056 1.558 0 2.912.352 4.064 1.056a7.236 7.236 0 0 1 2.688 2.752c.64 1.152.96 2.421.96 3.808 0 .213-.01.448-.032.704 0 .235-.01.501-.032.8h-12.352c.107 1.536.608 2.71 1.504 3.52.918.79 1.974 1.184 3.168 1.184.96 0 1.76-.213 2.4-.64a4.035 4.035 0 0 0 1.472-1.792h3.392c-.426 1.493-1.28 2.741-2.56 3.744-1.258 1.003-2.826 1.504-4.704 1.504zm0-13.856c-1.13 0-2.133.341-3.008 1.024-.874.661-1.408 1.664-1.6 3.008h8.96c-.064-1.237-.501-2.219-1.312-2.944-.81-.725-1.824-1.088-3.04-1.088z"/><g clip-path="url(#a)"><path fill="#8CBCFF" d="M34.43 2.857a1.975 1.975 0 1 1 .001 3.95 1.975 1.975 0 0 1 0-3.95z"/><path fill="#FAF4D3" d="M37.871 21.595c.72 6.463-3.05 12.84-9.401 15.34-6.33 2.492-13.337.362-17.294-4.764l-.022-.096c8.442-1.893 19.293-6.171 26.698-10.513l.02.033zm-.474-2.549.054.104c-7.386 3.853-19.659 8.68-27.682 10.893l-.043-.156c-4.044-7.823-.46-17.501 7.804-20.753 8.542-3.36 17.73 1.765 19.867 9.912z"/><path fill="#FFF68E" d="M37.853 21.563C24.159 29.593 2.107 35.749.578 31.859c-.607-1.541 2.366-4.29 7.46-7.289l.1-.01c.08.793.227 1.586.44 2.375l-.118.031c-7.58 3.963-7.095 5.397 1.31 3.077 3.729-1.028 8.703-2.716 14.085-4.834 17.686-6.96 25.646-12.818 12.512-9.22l-.152.08a14.747 14.747 0 0 0-1.285-2.032l.114-.087c12.665-2.79 14.095 1.002 2.809 7.613z"/><path fill="#000" d="M39.403 33.572a.815.815 0 1 1-.079 1.628.815.815 0 0 1 .079-1.628zM4.922 6.462a.815.815 0 1 0 0-1.629.815.815 0 0 0 0 1.63zM23.009 38.45c-1.407 0-2.817-.196-4.204-.589a15.52 15.52 0 0 1-8-5.403.469.469 0 1 1 .742-.573c2.786 3.61 7.09 5.61 11.49 5.61 1.769 0 3.553-.323 5.261-.995 6.07-2.39 9.814-8.497 9.107-14.852a.469.469 0 0 1 .932-.104c.754 6.775-3.233 13.284-9.696 15.828a15.35 15.35 0 0 1-5.632 1.078zM9.725 30.355a.468.468 0 0 1-.417-.254 15.48 15.48 0 0 1-1.639-5.493 15.51 15.51 0 0 1 2.117-9.499 15.263 15.263 0 0 1 7.572-6.412c6.42-2.525 13.799-.446 17.945 5.058a15.476 15.476 0 0 1 2.032 3.637c.229.581.392 1.069.514 1.535a.469.469 0 1 1-.906.238c-.113-.43-.266-.884-.48-1.43a14.536 14.536 0 0 0-1.91-3.416C30.662 9.15 23.73 7.198 17.702 9.569c-6.021 2.37-9.763 8.515-9.1 14.943a14.492 14.492 0 0 0 1.54 5.159.469.469 0 0 1-.416.684z"/><path fill="#000" d="M4.091 33.519c-1.985 0-3.52-.394-3.95-1.489-.887-2.253 3.676-5.52 7.66-7.864a.469.469 0 1 1 .475.808c-5.936 3.493-7.622 5.8-7.263 6.713.362.92 3.19 1.456 9.972-.055l.029-.007a2.16 2.16 0 0 1 .043-.009c4.101-.92 8.813-2.407 13.627-4.302 4.837-1.903 9.309-4.032 12.931-6.156 6.02-3.527 7.733-5.854 7.37-6.776-.358-.91-3.15-1.449-9.84.026a.469.469 0 0 1-.202-.916c4.492-.99 10.031-1.698 10.915.547.893 2.268-3.732 5.563-7.769 7.928-3.663 2.148-8.18 4.299-13.062 6.22-4.86 1.912-9.62 3.415-13.77 4.345l-.01.002-.065.015c-2.345.522-4.974.97-7.091.97z"/><path fill="#000" d="M4.08 31.626c-.805 0-1.238-.192-1.397-.596-.217-.55.209-1.16 1.424-2.036.94-.678 2.332-1.5 4.135-2.443a.469.469 0 0 1 .435.83c-3.885 2.031-4.819 2.966-5.041 3.275.375.075 1.71.122 6.008-1.065 3.868-1.066 8.854-2.777 14.04-4.818 5.184-2.04 9.997-4.185 13.55-6.038 3.961-2.064 4.907-3.01 5.13-3.32-.371-.075-1.684-.122-5.873 1.026a.469.469 0 0 1-.248-.904c1.95-.534 3.517-.877 4.66-1.02 1.476-.183 2.198-.027 2.414.523.218.554-.215 1.168-1.448 2.053-.955.687-2.369 1.518-4.2 2.473-3.583 1.868-8.428 4.027-13.642 6.08-5.216 2.052-10.235 3.774-14.133 4.849-1.99.55-3.59.903-4.754 1.052-.409.052-.76.079-1.06.079zM34.43 7.277a2.447 2.447 0 0 1-2.444-2.444 2.447 2.447 0 0 1 2.444-2.444 2.447 2.447 0 0 1 2.444 2.444 2.447 2.447 0 0 1-2.444 2.444zm0-3.95c-.83 0-1.506.675-1.506 1.506 0 .83.676 1.506 1.506 1.506.831 0 1.507-.676 1.507-1.506 0-.831-.676-1.507-1.507-1.507z"/></g><defs><clipPath id="a"><path fill="#fff" d="M0 2h46v37H0z"/></clipPath></defs></svg>